<svg width="512" height="512" viewBox="0 0 512 512" fill="none" xmlns="http://www.w3.org/2000/svg">
<path d="M216 0C202.7 0 192 10.7 192 24V83.4C184.4 85.5 177.1 88.4 170.2 92.3L164 95.7C136.9 110.8 120 139.4 120 170.5C120 186.4 124.3 201.3 131.9 214C124.4 226.2 120 240.6 120 256C120 274 126 290.6 136 304C126 317.4 120 334 120 352C120 366.6 123.9 380.2 130.7 392C123.9 403.8 120 417.4 120 432C120 476.2 155.8 512 200 512H312C356.2 512 392 476.2 392 432C392 417.4 388.1 403.8 381.3 392C388.1 380.2 392 366.6 392 352C392 334 386 317.4 376 304C386 290.6 392 274 392 256C392 240.6 387.6 226.2 380.1 214C387.7 201.2 392 186.4 392 170.5C392 139.4 375.2 110.8 348 95.7L341.8 92.3C334.9 88.5 327.5 85.5 320 83.4V24C320 10.7 309.3 0 296 0H216ZM172.7 239.2C182.1 224 182.3 204.9 173.2 189.5C169.9 184 168 177.5 168 170.4C168 156.8 175.4 144.2 187.3 137.6L193.5 134.2C200.9 130.1 209.1 128 217.6 128H294.5C302.9 128 311.2 130.1 318.6 134.2L324.8 137.6C336.7 144.2 344.1 156.8 344.1 170.4C344.1 177.5 342.2 183.9 338.9 189.5C329.8 204.9 330 224 339.4 239.2C342.4 244 344.1 249.7 344.1 256C344.1 263.3 341.7 269.8 337.7 275.2C324.9 292.3 324.9 315.8 337.7 332.9C341.7 338.2 344.1 344.8 344.1 352.1C344.1 358 342.5 363.4 339.8 368.1C331.2 383 331.2 401.3 339.8 416.2C342.5 420.9 344.1 426.3 344.1 432.2C344.1 449.9 329.8 464.2 312.1 464.2H200.1C182.4 464.2 168.1 449.9 168.1 432.2C168.1 426.3 169.7 420.9 172.4 416.2C181 401.3 181 383 172.4 368.1C169.7 363.4 168.1 358 168.1 352.1C168.1 344.8 170.5 338.3 174.5 332.9C187.3 315.8 187.3 292.3 174.5 275.2C170.5 269.9 168.1 263.3 168.1 256C168.1 249.8 169.8 244.1 172.8 239.2H172.7ZM232 208C218.7 208 208 218.7 208 232C208 245.3 218.7 256 232 256H280C293.3 256 304 245.3 304 232C304 218.7 293.3 208 280 208H232ZM208 360C208 373.3 218.7 384 232 384H280C293.3 384 304 373.3 304 360C304 346.7 293.3 336 280 336H232C218.7 336 208 346.7 208 360Z" fill="white"/>
</svg>
