<svg width="512" height="512" viewBox="0 0 512 512" fill="none" xmlns="http://www.w3.org/2000/svg">
<g clip-path="url(#clip0_36_9)">
<path d="M209.1 48H302.8C305.5 48 308 49.3 309.5 51.6L328.5 80H183.5L202.5 51.6C204 49.4 206.5 48 209.2 48H209.1ZM386.2 80L349.5 24.9C339.1 9.4 321.6 0 302.9 0H209.1C190.4 0 172.9 9.4 162.5 24.9L125.8 80H112.1H64H56C42.7 80 32 90.7 32 104C32 117.3 42.7 128 56 128H67.6L91.6 452.7C94.1 486.1 121.9 512 155.4 512H356.5C390 512 417.8 486.1 420.3 452.7L444.4 128H456C469.3 128 480 117.3 480 104C480 90.7 469.3 80 456 80H448H399.9H386.2ZM396.3 128L372.5 449.2C371.9 457.6 364.9 464 356.5 464H155.4C147 464 140.1 457.5 139.4 449.2L115.7 128H396.3Z" fill="white"/>
</g>
<defs>
<clipPath id="clip0_36_9">
<rect width="448" height="512" fill="white" transform="translate(32)"/>
</clipPath>
</defs>
</svg>
