<svg width="512" height="512" viewBox="0 0 512 512" fill="none" xmlns="http://www.w3.org/2000/svg">
<g clip-path="url(#clip0_34_2)">
<path d="M299.3 475.8C299.4 475 299.5 474.1 299.7 473.2L321.4 387.4C322.9 381.5 322.8 375 319.2 370.1L315.3 364.8C308.7 355.7 296.8 352.6 285.6 352.6H226.4C215.1 352.6 203.3 355.7 196.6 364.8L192.7 370.1C189.1 375 189 381.5 190.5 387.4L212.2 473.2C212.4 474.1 212.6 474.9 212.6 475.8C226.6 478.5 241.1 480 255.9 480C270.7 480 285.2 478.6 299.2 475.8H299.3ZM334.6 465.8C372.9 451.5 406.2 426.9 431.2 395.6L358.7 390.8C357.3 390.7 355.9 391.1 354.7 392C353.5 392.9 352.7 394.1 352.4 395.4L334.6 465.9V465.8ZM451.7 365.1C465.6 340.2 474.9 312.4 478.4 282.8C477.6 282.5 476.9 282.1 476.1 281.6L401.2 234.5C396.1 231.3 389.9 229.4 384.1 231.2L377.8 233.2C367.1 236.7 360.5 247 357 257.7L338.8 314C335.3 324.7 334.6 336.9 341.2 346L345.1 351.3C348.7 356.2 354.8 358.3 360.9 358.7L449.2 364.6C450.1 364.7 450.9 364.8 451.8 365L451.7 365.1ZM479.8 246.1C478 204.2 464.7 165.4 442.9 132.5L415.9 200C415.4 201.3 415.3 202.7 415.7 204.1V204.2V204.3C416.1 205.6 417 206.7 418.2 207.5L479.7 246.2L479.8 246.1ZM420.2 103.6C400.5 82.4 376.8 65 350.2 52.7C349.6 53.3 349 54 348.3 54.5L280.3 111.1C275.6 115 271.9 120.3 271.9 126.4V133C271.9 144.2 279.7 153.7 288.8 160.3L336.7 195.1C345.8 201.7 357.2 206.2 367.9 202.7L374.2 200.7C380 198.8 383.9 193.6 386.1 188L419 105.9C419.3 105.1 419.7 104.3 420.1 103.6H420.2ZM315.7 40.1C296.7 34.8 276.6 32 256 32C235.4 32 215.3 34.8 196.3 40.1L252.1 86.6C253.2 87.5 254.6 88 256 88C257.4 88 258.8 87.5 259.9 86.6L315.7 40.1ZM161.7 52.8C135.1 65.1 111.4 82.5 91.7 103.7C92.1 104.4 92.5 105.2 92.8 106L125.7 188.1C128 193.7 131.9 198.9 137.6 200.8L143.9 202.8C154.6 206.3 166 201.8 175.1 195.2L223 160.4C232.1 153.8 239.9 144.3 239.9 133.1V126.5C239.9 120.4 236.2 115.1 231.5 111.2L163.5 54.6C162.8 54 162.2 53.4 161.6 52.8H161.7ZM69.1 132.5C47.4 165.3 34 204.2 32.2 246.1L93.7 207.4C94.9 206.7 95.8 205.5 96.2 204.2V204.1V204C96.6 202.7 96.6 201.2 96 199.9L69 132.5H69.1ZM33.6 282.8C37.1 312.4 46.4 340.2 60.3 365.1C61.1 364.9 62 364.8 62.9 364.7L151.2 358.8C157.3 358.4 163.4 356.3 167 351.4L170.9 346.1C177.5 337 176.8 324.8 173.3 314.1L155 257.8C151.5 247.1 144.9 236.7 134.2 233.3L127.9 231.3C122.1 229.4 115.9 231.3 110.8 234.6L35.9 281.6C35.2 282.1 34.4 282.5 33.6 282.8ZM80.8 395.6C105.8 427 139.1 451.5 177.4 465.8L159.6 395.3C159.3 393.9 158.4 392.7 157.3 391.9C156.2 391.1 154.7 390.7 153.3 390.7L80.8 395.5V395.6ZM0 256C0 188.105 26.9714 122.99 74.9807 74.9807C122.99 26.9714 188.105 0 256 0C323.895 0 389.01 26.9714 437.019 74.9807C485.029 122.99 512 188.105 512 256C512 323.895 485.029 389.01 437.019 437.019C389.01 485.029 323.895 512 256 512C188.105 512 122.99 485.029 74.9807 437.019C26.9714 389.01 0 323.895 0 256ZM241.9 186.3L194 221C185.6 227.1 182.1 237.9 185.3 247.8L203.6 304.1C206.8 314 216 320.7 226.4 320.7H285.6C296 320.7 305.2 314 308.4 304.1L326.7 247.8C329.9 237.9 326.4 227.1 318 221L270.1 186.2C261.7 180.1 250.3 180.1 241.9 186.2V186.3Z" fill="white"/>
</g>
<defs>
<clipPath id="clip0_34_2">
<rect width="512" height="512" fill="white"/>
</clipPath>
</defs>
</svg>
